<svg width="64" height="64" viewBox="0 0 64 64" xmlns="http://www.w3.org/2000/svg">
<path d="M51.2 45.0942H44.984V39.025H51.2V45.0942ZM41.8573 45.0942H35.9352V37.4069C35.9352 33.2137 35.9723 29.2415 36.156 24.754C35.6044 26.7402 35.0894 28.4688 34.3906 30.7125L29.8665 45.0942H24.7904L20.2667 30.7125C19.5679 28.4688 19.0527 26.7771 18.5379 24.7906C18.685 29.2781 18.7217 33.2137 18.7217 37.4069V45.0942H12.8V18.9058H22.1058L25.5631 30.161C26.1883 32.2573 26.8138 34.5379 27.3654 36.671C27.9171 34.501 28.5423 32.1471 29.1308 30.0506L32.5517 18.9058H41.8573V45.0942ZM0 0V64H64V0H0Z" fill="black"/>
</svg>